<?xml version="1.0" encoding="utf-8"?>
<!-- Generator: Adobe Illustrator 27.7.0, SVG Export Plug-In . SVG Version: 6.00 Build 0)  -->
<svg version="1.1" id="Calque_1" xmlns="http://www.w3.org/2000/svg" xmlns:xlink="http://www.w3.org/1999/xlink" x="0px" y="0px"
	 viewBox="0 0 119.2 90" style="enable-background:new 0 0 119.2 90;" xml:space="preserve">
<style type="text/css">
	.st0{fill:url(#SVGID_1_);}
	.st1{fill-rule:evenodd;clip-rule:evenodd;fill:url(#SVGID_00000116950847127338456690000018125633561834349445_);}
	.st2{fill-rule:evenodd;clip-rule:evenodd;fill:url(#SVGID_00000067199523202208006330000007712614293245019776_);}
	.st3{fill-rule:evenodd;clip-rule:evenodd;fill:url(#SVGID_00000118386930352997711920000018247314579330722712_);}
	.st4{fill:url(#SVGID_00000128460470246087360540000011504899647674771376_);}
	.st5{fill:url(#SVGID_00000086669154173184661230000002948023597267204501_);}
	.st6{fill:url(#SVGID_00000036218251250914287040000016818616157706059169_);}
	.st7{fill:url(#SVGID_00000057832325758597263350000014106209056173455525_);}
</style>
<g id="logo">
	<g>
		<linearGradient id="SVGID_1_" gradientUnits="userSpaceOnUse" x1="-9.2874" y1="20.0835" x2="472.7783" y2="-53.9369">
			<stop  offset="0" style="stop-color:#5B66AD"/>
			<stop  offset="1" style="stop-color:#D9AED2"/>
		</linearGradient>
		<path class="st0" d="M92.2,11.9c-0.6,0-1.2-0.1-1.7-0.4c-9-4-19.2-4-28.2,0c-2.2,1-4.7,0-5.6-2.2c-1-2.2,0-4.7,2.2-5.6
			c11.2-5,24-5,35.1,0c2.2,1,3.1,3.5,2.2,5.6C95.4,10.9,93.9,11.9,92.2,11.9z"/>
	</g>
	<g>
		
			<linearGradient id="SVGID_00000160177484243229484050000005152057418122176657_" gradientUnits="userSpaceOnUse" x1="-8.1503" y1="27.4887" x2="473.9154" y2="-46.5317">
			<stop  offset="0" style="stop-color:#5B66AD"/>
			<stop  offset="1" style="stop-color:#D9AED2"/>
		</linearGradient>
		
			<circle style="fill-rule:evenodd;clip-rule:evenodd;fill:url(#SVGID_00000160177484243229484050000005152057418122176657_);" cx="45.2" cy="19.3" r="7.5"/>
		
			<linearGradient id="SVGID_00000060019245315451495770000000757762419129632660_" gradientUnits="userSpaceOnUse" x1="-6.713" y1="36.8494" x2="475.3527" y2="-37.171">
			<stop  offset="0" style="stop-color:#5B66AD"/>
			<stop  offset="1" style="stop-color:#D9AED2"/>
		</linearGradient>
		
			<circle style="fill-rule:evenodd;clip-rule:evenodd;fill:url(#SVGID_00000060019245315451495770000000757762419129632660_);" cx="107.6" cy="19.3" r="7.5"/>
		
			<linearGradient id="SVGID_00000129889044547815736500000015453653300003732926_" gradientUnits="userSpaceOnUse" x1="-7.3116" y1="32.9506" x2="474.754" y2="-41.0698">
			<stop  offset="0" style="stop-color:#5B66AD"/>
			<stop  offset="1" style="stop-color:#D9AED2"/>
		</linearGradient>
		
			<circle style="fill-rule:evenodd;clip-rule:evenodd;fill:url(#SVGID_00000129889044547815736500000015453653300003732926_);" cx="76.4" cy="20.1" r="7.5"/>
	</g>
	<g>
		
			<linearGradient id="SVGID_00000183957525285984844480000002805429456225486264_" gradientUnits="userSpaceOnUse" x1="-4.022" y1="54.3745" x2="478.0436" y2="-19.6459">
			<stop  offset="0" style="stop-color:#5B66AD"/>
			<stop  offset="1" style="stop-color:#D9AED2"/>
		</linearGradient>
		<path style="fill:url(#SVGID_00000183957525285984844480000002805429456225486264_);" d="M53.2,39c-2.3,0-4.1,1.8-4.3,4
			c0,0.1,0,0.2,0,0.3c0,3.2,1.3,6.2,3.5,8.4c2.3,2.3,5.3,3.5,8.4,3.5c3.2,0,6.3-1.2,8.6-3.5c2.3-2.3,3.6-5.3,3.6-8.5
			c0-2,1.5-3.5,3.4-3.5c1.9,0,3.4,1.6,3.4,3.5c0-2.4,1.9-4.3,4.3-4.3c2.4,0,4.3,1.9,4.3,4.3c0-3.2-1.2-6.3-3.4-8.5
			c-2.3-2.3-5.3-3.6-8.5-3.6c-3.2,0-6.3,1.3-8.5,3.6c-2.2,2.3-3.4,5.3-3.4,8.5c0,1.8-1.6,3.4-3.5,3.4c-1.8,0-3.4-1.6-3.4-3.4
			C57.5,40.9,55.6,39,53.2,39z"/>
		
			<linearGradient id="SVGID_00000117675253509400304110000000622755340220591260_" gradientUnits="userSpaceOnUse" x1="-1.864" y1="68.4293" x2="480.2017" y2="-5.5911">
			<stop  offset="0" style="stop-color:#5B66AD"/>
			<stop  offset="1" style="stop-color:#D9AED2"/>
		</linearGradient>
		<path style="fill:url(#SVGID_00000117675253509400304110000000622755340220591260_);" d="M115,47.6c-2.4,0-4.3-1.9-4.3-4.3
			c0-0.1,0-0.1,0-0.2c0.1,9.2-3.4,17.8-10.1,24.3c0,0,0,0,0,0c-13.3,13.3-35,13.3-48.4,0c0,0,0,0,0,0C45.5,61,42,52.3,42.1,43.1
			c0.1-1.8,1.6-3.4,3.3-3.4c1.8,0,3.3,1.4,3.5,3.2c0.2-2.2,2-4,4.3-4c2.4,0,4.3,1.9,4.3,4.3c0-6.7-5.4-12.1-12-12.1
			c-3.2,0-6.1,1.3-8.4,3.6c-1.8,1.8-2.9,4-3.3,6.4c-0.1,0.3-0.2,0.7-0.2,1c0,0.3,0,0.5,0,0.8c0,0.1,0,0.2,0,0.3c0,0,0,0.1,0,0.1
			c0,5.3,1,10.6,2.9,15.5c0.2,0.6,0.5,1.1,0.7,1.6L1.9,82.7c-1.9,1.2-2.4,3.6-1.3,5.5C1.4,89.4,2.7,90,4,90c0.7,0,1.5-0.2,2.1-0.6
			l35-21.9c1.5,2.1,3.2,4.1,5.1,6C54.3,81.6,65,86,76.4,86c11.4,0,22.1-4.4,30.2-12.5c4.3-4.2,7.5-9.1,9.7-14.6
			c2-5,2.9-10.2,2.9-15.5C119.1,45.7,117.3,47.6,115,47.6z"/>
		
			<linearGradient id="SVGID_00000160908233064908545380000006994937398191309719_" gradientUnits="userSpaceOnUse" x1="-3.0312" y1="60.8274" x2="479.0345" y2="-13.193">
			<stop  offset="0" style="stop-color:#5B66AD"/>
			<stop  offset="1" style="stop-color:#D9AED2"/>
		</linearGradient>
		<path style="fill:url(#SVGID_00000160908233064908545380000006994937398191309719_);" d="M119.2,42.2c0-0.4-0.1-0.7-0.2-1
			c0.1,0.6,0.2,1.2,0.2,1.8C119.2,42.7,119.2,42.5,119.2,42.2z"/>
		
			<linearGradient id="SVGID_00000038404335038760905620000014954514544375344563_" gradientUnits="userSpaceOnUse" x1="-3.3083" y1="59.0226" x2="478.7574" y2="-14.9978">
			<stop  offset="0" style="stop-color:#5B66AD"/>
			<stop  offset="1" style="stop-color:#D9AED2"/>
		</linearGradient>
		<path style="fill:url(#SVGID_00000038404335038760905620000014954514544375344563_);" d="M119.2,43c0-0.6-0.1-1.2-0.2-1.8
			c-0.4-2.4-1.6-4.7-3.3-6.4c-2.3-2.3-5.2-3.6-8.4-3.6c-6.6,0-12,5.4-12,12.1c0,1.8-1.6,3.4-3.4,3.4c-1.9,0-3.5-1.6-3.5-3.4
			c0-2.4-1.9-4.3-4.3-4.3c-2.4,0-4.3,1.9-4.3,4.3c0,3.2,1.3,6.2,3.6,8.5c2.3,2.3,5.3,3.5,8.6,3.5c3.2,0,6.2-1.3,8.4-3.5
			c2.3-2.3,3.5-5.3,3.5-8.4c0-0.1,0-0.2,0-0.3c0.2-1.8,1.7-3.2,3.5-3.2c1.8,0,3.3,1.5,3.3,3.4c0,0.1,0,0.1,0,0.2
			c0,2.4,1.9,4.3,4.3,4.3c2.3,0,4.2-1.9,4.3-4.2c0,0,0-0.1,0-0.1C119.2,43.2,119.2,43.1,119.2,43z"/>
	</g>
</g>
</svg>
