<?xml version="1.0" standalone="no"?>
<!DOCTYPE svg PUBLIC "-//W3C//DTD SVG 20010904//EN"
 "http://www.w3.org/TR/2001/REC-SVG-20010904/DTD/svg10.dtd">
<svg version="1.0" xmlns="http://www.w3.org/2000/svg"
 width="952.000000pt" height="952.000000pt" viewBox="0 0 952.000000 952.000000"
 preserveAspectRatio="xMidYMid meet">
<metadata>
Created by potrace 1.14, written by Peter Selinger 2001-2017
</metadata>
<g transform="translate(0.000000,952.000000) scale(0.100000,-0.100000)"
fill="#000000" stroke="none">
<path d="M5829 8346 c-2 -2 -38 -8 -79 -12 -83 -8 -115 -12 -115 -14 0 -1 -18
-3 -40 -5 -22 -2 -76 -11 -120 -20 -44 -9 -91 -18 -105 -21 -144 -29 -420
-115 -545 -169 -16 -8 -54 -23 -84 -35 -57 -22 -129 -68 -161 -102 -57 -61
-93 -184 -78 -263 13 -71 16 -80 37 -121 54 -104 155 -171 269 -179 74 -6 122
6 260 64 65 27 264 96 269 93 2 0 17 4 35 9 36 11 60 17 98 25 14 3 32 7 40 9
8 2 15 4 15 5 0 1 9 3 20 5 11 1 36 6 55 10 32 6 51 9 120 20 92 14 202 20
385 20 244 0 313 -6 520 -45 188 -35 392 -98 575 -178 77 -34 93 -37 170 -36
66 1 96 6 135 24 59 27 156 122 174 171 7 19 16 41 21 50 4 9 7 54 6 100 -2
68 -7 94 -29 135 -30 59 -87 122 -137 151 -30 18 -234 102 -310 128 -3 1 -12
4 -20 8 -52 21 -307 91 -370 102 -19 3 -43 8 -53 11 -11 3 -29 7 -40 9 -12 1
-38 5 -57 9 -79 14 -97 17 -145 22 -27 3 -66 8 -85 11 -40 7 -625 15 -631 9z"/>
<path d="M3471 7389 c-82 -21 -151 -49 -151 -61 0 -4 -4 -7 -9 -5 -15 4 -129
-91 -171 -144 -40 -51 -97 -161 -106 -203 -2 -11 -7 -34 -11 -51 -4 -16 -7
-73 -7 -125 0 -194 85 -357 249 -480 28 -21 61 -41 75 -45 14 -4 27 -11 30
-14 3 -4 32 -16 65 -26 44 -14 89 -20 170 -20 61 0 119 3 130 6 67 18 135 44
135 51 0 4 7 8 17 8 19 0 110 67 155 113 33 35 88 111 88 123 0 4 6 15 14 23
8 9 24 48 36 86 34 106 35 264 2 355 -3 8 -6 20 -7 26 -8 36 -64 134 -106 184
-50 60 -144 133 -211 164 -21 9 -39 16 -40 16 -2 -1 -16 4 -33 10 -78 30 -215
34 -314 9z"/>
<path d="M8472 7394 c-213 -44 -392 -209 -451 -414 -25 -86 -27 -95 -25 -165
1 -90 10 -144 36 -214 20 -54 76 -151 103 -177 7 -8 15 -17 17 -21 1 -5 26
-27 53 -49 156 -129 348 -172 543 -123 160 40 306 160 380 311 40 83 47 107
60 208 8 60 -2 174 -20 230 -12 40 -58 142 -67 150 -3 3 -21 25 -40 50 -80
106 -231 198 -356 217 -65 10 -179 9 -233 -3z"/>
<path d="M6035 7342 c-2 -2 -18 -6 -37 -9 -224 -34 -414 -211 -477 -444 -18
-66 -21 -211 -6 -269 4 -14 9 -36 13 -50 21 -92 134 -249 228 -316 39 -27 152
-81 187 -88 15 -3 39 -9 55 -12 52 -12 187 -6 251 11 165 43 312 160 384 305
20 41 39 85 41 96 3 12 9 39 15 60 18 67 6 239 -22 316 -31 82 -83 164 -139
221 -45 45 -112 97 -124 97 -4 0 -15 6 -23 14 -19 16 -130 53 -184 62 -45 6
-157 11 -162 6z"/>
<path d="M3534 5861 c-2 -3 -19 -6 -36 -7 -36 -3 -129 -24 -143 -33 -5 -3 -13
-6 -17 -7 -5 -1 -9 -2 -10 -3 -2 -2 -14 -5 -27 -7 -14 -2 -32 -11 -41 -19 -9
-8 -23 -15 -31 -15 -8 0 -25 -9 -39 -20 -14 -11 -29 -20 -33 -20 -17 0 -126
-87 -193 -154 -39 -39 -90 -99 -113 -134 -40 -59 -109 -194 -115 -224 -1 -7
-8 -31 -14 -53 -6 -22 -13 -53 -16 -70 -3 -16 -10 -43 -14 -60 -14 -45 -5
-414 12 -515 2 -14 8 -52 11 -85 4 -33 9 -70 11 -82 9 -55 12 -70 19 -108 4
-22 9 -47 10 -56 6 -32 37 -156 57 -223 11 -38 21 -76 23 -85 2 -9 9 -29 15
-46 6 -16 13 -37 15 -45 2 -9 23 -67 48 -130 25 -63 47 -121 49 -128 2 -7 -15
-23 -36 -35 -22 -12 -46 -28 -54 -34 -7 -7 -17 -13 -22 -13 -5 0 -15 -6 -22
-12 -8 -7 -23 -18 -33 -25 -11 -6 -93 -58 -183 -115 -89 -57 -173 -110 -187
-118 -64 -39 -311 -196 -320 -203 -5 -4 -62 -40 -125 -79 -63 -39 -158 -98
-211 -132 -52 -33 -104 -66 -115 -73 -10 -7 -75 -48 -144 -91 -69 -44 -233
-147 -365 -230 -132 -83 -245 -156 -252 -162 -7 -5 -14 -10 -17 -10 -2 0 -32
-18 -65 -40 -33 -22 -64 -40 -70 -40 -5 0 -11 -4 -13 -8 -3 -7 -35 -29 -153
-102 -13 -8 -92 -58 -175 -110 -83 -52 -158 -100 -168 -105 -134 -79 -188
-137 -216 -236 -31 -105 3 -239 77 -310 82 -77 230 -109 329 -71 41 16 131 65
153 84 5 5 66 43 135 86 69 42 126 80 128 84 2 5 10 8 17 8 8 0 20 6 27 14 8
7 30 21 48 31 19 10 37 21 40 24 6 7 32 23 75 47 17 10 62 38 102 65 40 26 81
50 92 54 12 3 21 11 21 16 0 5 7 9 15 9 8 0 15 3 15 8 0 4 10 12 23 18 25 13
627 389 642 402 6 5 15 11 21 13 24 10 359 223 362 231 2 4 8 8 13 8 5 0 60
33 124 72 63 40 127 79 142 87 16 8 30 17 33 21 3 4 52 35 110 71 58 35 110
67 115 71 13 11 260 165 304 190 19 11 50 30 69 43 l34 23 61 -81 c33 -45 63
-84 66 -87 4 -3 17 -18 29 -34 76 -99 291 -322 411 -426 35 -30 68 -60 75 -65
67 -61 393 -295 412 -295 3 0 18 -8 32 -19 80 -55 424 -218 562 -266 3 -1 12
-4 20 -8 75 -30 356 -109 440 -123 14 -3 34 -8 45 -11 11 -3 34 -7 51 -9 17
-1 44 -5 60 -8 55 -12 78 -16 138 -22 34 -3 77 -7 96 -9 53 -6 312 -18 335
-15 18 1 45 1 78 0 27 -2 294 18 323 24 11 2 45 7 75 10 56 7 94 13 94 16 0 1
16 3 35 4 20 1 40 5 45 8 6 3 26 9 45 12 104 17 389 98 470 133 8 3 17 7 20 7
18 3 250 103 270 116 14 9 45 25 70 35 25 11 88 44 140 74 82 47 142 85 324
207 17 12 37 29 45 38 7 9 19 16 26 16 8 0 15 3 17 8 2 4 44 40 93 81 90 75
384 365 440 435 17 21 35 43 40 50 6 6 36 45 67 86 32 41 63 82 70 91 7 9 18
24 25 35 7 10 45 71 85 134 59 94 237 427 238 445 0 3 7 22 16 43 43 103 109
292 119 343 2 11 7 24 10 29 3 5 8 19 11 30 2 11 6 29 9 41 2 11 7 29 10 39 3
10 8 29 10 42 3 13 9 46 15 73 6 28 13 61 15 75 3 14 7 41 10 60 2 19 6 45 9
57 3 12 8 53 12 90 4 37 8 82 11 98 11 84 13 427 2 471 -6 27 -13 60 -15 74
-11 60 -84 246 -102 260 -4 3 -16 22 -26 43 -11 20 -23 37 -28 37 -4 0 -8 5
-8 10 0 10 -25 40 -80 99 -54 58 -160 139 -233 180 -71 39 -196 89 -242 96
-11 2 -38 7 -60 10 -119 21 -299 8 -417 -28 -67 -21 -162 -61 -166 -69 -2 -5
-8 -8 -14 -8 -23 0 -157 -100 -223 -166 -129 -128 -222 -298 -260 -473 -3 -11
-7 -31 -10 -43 -3 -13 -8 -68 -11 -123 -4 -55 -13 -112 -21 -127 -7 -16 -11
-28 -8 -28 6 0 -39 -63 -62 -87 -6 -7 -16 -13 -22 -13 -6 0 -11 -4 -11 -10 0
-5 -7 -10 -15 -10 -8 0 -15 -4 -15 -9 0 -21 -142 -35 -200 -19 -41 11 -102 52
-134 90 -43 50 -65 117 -68 210 -1 37 -6 64 -11 61 -5 -3 -5 2 0 12 7 11 7 32
1 59 -5 22 -11 48 -13 56 -10 52 -31 114 -56 174 -34 80 -130 228 -162 251
-12 8 -18 15 -14 15 4 0 -16 21 -45 47 -29 25 -54 50 -56 55 -2 4 -8 8 -13 8
-9 0 -69 39 -79 51 -10 13 -127 67 -198 93 -259 93 -582 54 -812 -98 -61 -41
-140 -105 -169 -140 -14 -15 -30 -33 -35 -40 -27 -28 -76 -95 -103 -141 -34
-58 -93 -196 -100 -234 -2 -14 -9 -46 -14 -70 -5 -24 -12 -74 -15 -110 -10
-134 -13 -153 -34 -196 -77 -159 -295 -204 -426 -88 -59 54 -88 115 -98 211
-3 30 -8 57 -11 62 -2 4 -7 27 -10 51 -6 44 -12 79 -15 89 -1 3 -3 10 -5 15
-1 6 -3 13 -5 18 -1 4 -3 10 -4 15 -19 83 -112 280 -138 290 -4 2 -8 8 -8 14
0 22 -155 179 -220 223 -25 16 -47 33 -50 36 -3 3 -43 24 -90 47 -89 42 -199
76 -285 88 -62 8 -224 12 -231 5z m766 -627 c0 -2 -11 -3 -24 -2 -14 1 -23 5
-20 9 4 7 44 0 44 -7z m2400 6 c0 -5 -8 -10 -17 -10 -15 0 -16 2 -3 10 19 12
20 12 20 0z m-2483 -6 c-3 -3 -12 -4 -19 -1 -8 3 -5 6 6 6 11 1 17 -2 13 -5z
m123 -4 c8 -5 11 -10 5 -10 -5 0 -17 5 -25 10 -8 5 -10 10 -5 10 6 0 17 -5 25
-10z m2461 -8 c-7 -2 -18 1 -23 6 -8 8 -4 9 13 5 13 -4 18 -8 10 -11z m-2655
-1 c-6 -9 -46 -22 -46 -15 0 3 10 9 23 14 29 11 29 11 23 1z m2474 2 c-8 -3
-24 -10 -35 -15 -20 -9 -20 -9 -1 6 11 9 27 16 35 15 14 0 14 -1 1 -6z m225
-11 c-3 -3 -11 0 -18 7 -9 10 -8 11 6 5 10 -3 15 -9 12 -12z m-2458 2 c-3 -3
-12 -4 -19 -1 -8 3 -5 6 6 6 11 1 17 -2 13 -5z m2498 -14 c3 -6 -1 -7 -9 -4
-18 7 -21 14 -7 14 6 0 13 -4 16 -10z m-2796 -3 c-2 -1 -13 -9 -24 -17 -19
-14 -19 -14 -6 3 7 9 18 17 24 17 6 0 8 -1 6 -3z m352 -14 c13 -16 12 -17 -3
-4 -10 7 -18 15 -18 17 0 8 8 3 21 -13z m2109 13 c0 -2 -8 -10 -17 -17 -16
-13 -17 -12 -4 4 13 16 21 21 21 13z m388 -36 c17 -27 10 -25 -19 6 -13 14
-17 23 -9 19 9 -3 21 -14 28 -25z m-3202 -6 c67 -27 140 -110 159 -179 4 -16
9 -66 11 -110 2 -44 6 -96 9 -115 4 -19 9 -46 12 -60 9 -50 66 -205 89 -242
13 -21 24 -42 24 -48 0 -5 5 -10 10 -10 6 0 10 -6 10 -13 0 -7 11 -24 25 -39
14 -15 25 -30 25 -34 0 -14 150 -155 205 -192 99 -66 213 -119 308 -142 87
-22 115 -25 242 -24 112 1 210 14 280 37 6 2 23 7 38 12 64 17 214 99 277 150
86 70 240 252 240 283 0 6 4 12 8 14 9 4 67 135 70 158 0 3 6 19 12 35 7 17
14 39 16 50 2 11 7 31 9 45 3 14 8 66 11 115 9 168 51 250 152 301 58 29 164
41 190 21 6 -5 12 -7 12 -3 0 13 76 -33 109 -66 54 -52 82 -124 86 -220 2 -46
4 -83 5 -83 0 0 3 -18 5 -40 2 -22 7 -50 10 -62 3 -13 7 -31 9 -42 18 -79 84
-220 143 -304 32 -46 174 -194 214 -222 57 -42 85 -59 155 -93 43 -21 99 -44
124 -51 25 -7 53 -17 63 -23 11 -5 21 -7 23 -5 3 2 31 -1 63 -8 72 -15 267
-13 341 4 75 17 172 50 189 64 8 7 16 11 18 9 3 -3 59 24 108 51 93 54 229
187 300 297 44 68 99 182 93 193 -1 1 4 12 11 25 12 23 15 34 27 96 2 16 7 32
9 36 3 4 7 52 10 106 7 123 7 120 32 174 39 84 119 145 206 156 23 4 44 7 47
7 38 7 151 -43 190 -85 23 -25 58 -94 66 -129 9 -44 3 -264 -11 -369 -18 -142
-28 -207 -41 -260 -3 -14 -10 -44 -14 -67 -5 -23 -16 -64 -25 -92 -8 -28 -22
-75 -30 -103 -9 -29 -19 -60 -22 -68 -3 -8 -7 -17 -8 -20 -1 -3 -5 -14 -10
-25 -4 -11 -18 -47 -31 -80 -33 -87 -174 -366 -194 -385 -3 -3 -21 -30 -40
-60 -33 -53 -145 -204 -181 -245 -9 -11 -40 -45 -67 -76 -62 -70 -163 -171
-249 -246 -36 -32 -73 -65 -82 -73 -32 -30 -198 -147 -286 -202 -111 -69 -331
-182 -395 -203 -3 -1 -18 -7 -35 -14 -148 -62 -412 -133 -620 -165 -176 -27
-684 -28 -767 -2 -7 3 -33 7 -58 10 -42 5 -56 7 -120 21 -14 3 -34 7 -45 10
-17 3 -73 18 -225 59 -42 11 -265 98 -309 121 -28 14 -51 22 -51 19 0 -4 -6
-2 -13 4 -7 6 -53 32 -102 58 -122 63 -288 173 -415 274 -126 100 -360 332
-453 450 -83 104 -235 330 -228 339 1 2 -1 7 -7 10 -27 18 -189 387 -218 500
-2 9 -19 73 -38 143 -31 117 -37 146 -51 248 -3 19 -8 49 -10 65 -19 112 -26
406 -10 449 31 87 83 146 159 182 57 26 135 26 202 -2z m304 13 c0 -2 -15 -16
-32 -33 l-33 -29 29 33 c28 30 36 37 36 29z m2968 -92 c-3 -3 -9 2 -12 12 -6
14 -5 15 5 6 7 -7 10 -15 7 -18z"/>
</g>
</svg>
